<?xml version="1.0" standalone="no"?>
<!DOCTYPE svg PUBLIC "-//W3C//DTD SVG 20010904//EN"
 "http://www.w3.org/TR/2001/REC-SVG-20010904/DTD/svg10.dtd">
<svg version="1.0" xmlns="http://www.w3.org/2000/svg"
 width="500.000000pt" height="500.000000pt" viewBox="0 0 500.000000 500.000000"
 preserveAspectRatio="xMidYMid meet">

<g transform="translate(0.000000,500.000000) scale(0.100000,-0.100000)"
fill="#000000" stroke="none">
<path d="M2325 4784 c-674 -55 -1283 -418 -1657 -989 -424 -646 -472 -1471
-127 -2164 94 -190 148 -271 178 -271 23 0 23 0 5 28 -584 876 -472 2015 269
2745 313 307 705 508 1152 588 101 19 158 22 355 22 266 0 376 -14 599 -79
264 -77 469 -180 696 -349 696 -521 1006 -1423 780 -2272 -58 -219 -161 -445
-299 -656 -18 -27 -18 -27 5 -27 30 0 84 81 178 271 344 693 296 1519 -127
2164 -345 527 -880 872 -1502 970 -102 16 -403 27 -505 19z"/>
<path d="M2265 4204 c-314 -53 -587 -200 -813 -438 -179 -190 -298 -421 -358
-696 -26 -119 -26 -418 0 -540 80 -372 268 -670 561 -887 94 -70 299 -183 310
-171 3 3 10 103 16 223 16 297 4 331 -136 400 -190 94 -211 194 -151 703 20
166 36 305 36 308 0 3 12 4 28 2 l27 -3 3 -317 2 -316 41 -7 c22 -4 42 -5 45
-3 2 3 13 137 24 299 30 445 26 419 59 419 l28 0 6 -187 c4 -104 7 -254 7
-334 0 -81 3 -161 6 -178 6 -29 9 -31 54 -31 l48 0 7 365 7 365 28 0 c34 0 32
17 62 -404 l22 -318 39 5 c21 3 41 8 45 11 3 4 8 148 10 322 l5 315 26 -3 26
-3 28 -325 c24 -273 27 -339 19 -412 -18 -148 -59 -208 -187 -277 -39 -20 -82
-53 -99 -74 -28 -36 -31 -46 -34 -125 -4 -88 13 -471 21 -478 2 -3 50 -13 106
-24 137 -27 386 -27 519 -1 50 10 94 20 97 23 3 2 10 124 17 271 15 350 10
368 -128 433 -91 43 -147 103 -172 183 -27 90 -22 298 12 425 34 130 101 268
163 334 120 128 273 129 394 1 122 -128 209 -404 196 -623 -10 -176 -56 -253
-191 -319 -88 -43 -123 -86 -132 -163 -6 -49 12 -473 20 -482 7 -6 199 96 268
142 141 93 303 259 400 411 321 498 296 1151 -62 1627 -222 295 -541 489 -909
552 -115 19 -352 20 -466 0z"/>
<path d="M950 910 l0 -200 50 0 50 0 0 80 0 80 60 0 60 0 0 40 0 40 -60 0 -60
0 0 40 0 40 80 0 80 0 0 40 0 40 -130 0 -130 0 0 -200z"/>
<path d="M1365 1094 c-122 -63 -153 -225 -62 -322 80 -86 242 -81 309 9 82
110 53 250 -63 309 -47 25 -141 27 -184 4z m163 -98 c35 -34 41 -109 13 -153
-36 -57 -122 -61 -168 -8 -46 53 -22 159 41 186 33 14 88 2 114 -25z"/>
<path d="M1815 1096 c-71 -31 -115 -102 -115 -186 0 -63 18 -106 61 -147 43
-40 77 -53 143 -53 114 0 198 83 198 198 0 125 -76 202 -199 202 -32 -1 -71
-7 -88 -14z m141 -85 c78 -47 64 -186 -21 -210 -75 -20 -135 26 -135 104 0 59
18 95 55 111 42 18 65 17 101 -5z"/>
<path d="M2160 911 l0 -201 93 0 c117 0 162 13 208 59 44 43 64 106 55 170 -8
59 -33 100 -85 136 -40 28 -49 30 -157 34 l-114 3 0 -201z m219 92 c52 -39 53
-146 1 -184 -14 -11 -46 -22 -72 -25 l-48 -7 0 123 0 123 46 -6 c26 -2 58 -14
73 -24z"/>
<path d="M2700 910 l0 -200 45 0 44 0 3 122 3 121 80 -121 80 -122 48 0 47 0
0 200 0 200 -45 0 -44 0 -3 -122 -3 -123 -80 122 -80 122 -47 0 -48 1 0 -200z"/>
<path d="M3120 910 l0 -200 125 0 125 0 0 40 0 40 -75 0 -75 0 0 45 0 45 65 0
65 0 0 35 0 35 -65 0 -65 0 0 40 0 40 75 0 75 0 0 40 0 40 -125 0 -125 0 0
-200z"/>
<path d="M3478 1094 c-15 -8 -35 -28 -43 -44 -37 -71 -2 -137 88 -165 69 -23
97 -41 97 -65 0 -42 -78 -46 -94 -5 -4 11 -20 15 -57 15 -51 0 -51 0 -44 -27
16 -65 73 -97 163 -91 59 4 67 7 98 41 37 40 43 76 22 122 -12 27 -54 53 -119
74 -65 21 -87 71 -38 86 20 7 59 -10 59 -25 0 -6 23 -10 50 -10 41 0 50 3 50
18 0 25 -27 60 -60 77 -37 19 -137 19 -172 -1z"/>
<path d="M3760 1070 l0 -40 50 0 50 0 0 -160 0 -160 50 0 50 0 0 160 0 160 55
0 55 0 0 40 0 40 -155 0 -155 0 0 -40z"/>
<path d="M3586 435 c-20 -49 -35 -93 -33 -99 3 -6 10 1 17 17 11 23 19 27 52
27 31 0 41 -5 50 -25 22 -48 28 -25 7 28 -12 28 -29 72 -38 96 l-18 44 -37
-88z m60 -32 c-2 -2 -15 -3 -29 -1 -25 3 -25 3 -10 38 l15 35 15 -34 c8 -18
12 -35 9 -38z"/>
<path d="M800 420 c0 -53 4 -90 10 -90 6 0 10 18 10 40 l0 40 40 0 c22 0 40 5
40 10 0 6 -18 10 -40 10 -38 0 -40 2 -40 30 0 28 2 30 40 30 22 0 40 5 40 10
0 6 -22 10 -50 10 l-50 0 0 -90z"/>
<path d="M1033 486 c-22 -19 -28 -32 -28 -66 0 -97 126 -126 171 -39 45 89
-66 171 -143 105z m127 -26 c40 -75 -55 -146 -117 -88 -39 36 -29 92 20 113
36 15 82 3 97 -25z"/>
<path d="M1323 486 c-22 -19 -28 -32 -28 -66 0 -97 126 -126 171 -39 45 89
-66 171 -143 105z m127 -26 c40 -75 -55 -146 -117 -88 -39 36 -29 92 20 113
36 15 82 3 97 -25z"/>
<path d="M1590 420 l0 -90 41 0 c52 0 99 42 99 90 0 48 -47 90 -99 90 l-41 0
0 -90z m100 50 c43 -43 11 -120 -50 -120 l-30 0 0 70 0 70 30 0 c17 0 39 -9
50 -20z"/>
<path d="M2020 495 c-11 -14 -11 -20 -1 -37 11 -17 9 -23 -9 -44 -44 -45 9
-108 62 -75 15 9 23 9 34 0 19 -16 30 -4 14 16 -9 11 -10 18 -1 28 13 17 2 30
-14 17 -8 -7 -18 -4 -30 10 -17 19 -17 21 1 41 14 15 16 24 8 37 -15 23 -48
27 -64 7z m47 -11 c8 -21 -13 -42 -28 -27 -13 13 -5 43 11 43 6 0 13 -7 17
-16z m-2 -90 c14 -22 15 -28 4 -35 -37 -24 -76 14 -49 46 17 21 25 19 45 -11z"/>
<path d="M2410 420 l0 -90 36 0 c51 0 74 15 74 50 0 16 -4 32 -10 35 -5 3 -7
19 -3 35 8 41 -11 60 -58 60 l-39 0 0 -90z m80 45 c0 -21 -5 -25 -30 -25 -25
0 -30 4 -30 25 0 21 5 25 30 25 25 0 30 -4 30 -25z m10 -66 c15 -27 -3 -49
-41 -49 -26 0 -29 3 -29 35 0 32 2 35 30 35 19 0 33 -7 40 -21z"/>
<path d="M2630 420 l0 -90 55 0 c30 0 55 5 55 10 0 6 -20 10 -45 10 -43 0 -45
1 -45 30 0 29 2 30 45 30 25 0 45 5 45 10 0 6 -20 10 -45 10 -43 0 -45 1 -45
30 0 29 2 30 45 30 25 0 45 5 45 10 0 6 -25 10 -55 10 l-55 0 0 -90z"/>
<path d="M2850 502 c0 -17 67 -163 75 -163 8 0 75 146 75 163 0 26 -19 -1 -44
-65 l-30 -72 -27 60 c-16 33 -28 66 -29 73 0 13 -20 17 -20 4z"/>
<path d="M3110 420 l0 -90 55 0 c30 0 55 5 55 10 0 6 -20 10 -45 10 -43 0 -45
1 -45 30 0 28 2 30 40 30 22 0 40 5 40 10 0 6 -18 10 -40 10 -38 0 -40 2 -40
30 0 28 2 30 39 30 22 0 43 5 46 10 4 6 -15 10 -49 10 l-56 0 0 -90z"/>
<path d="M3340 420 c0 -53 4 -90 10 -90 6 0 10 16 10 35 0 45 11 44 48 -2 17
-21 33 -35 37 -32 3 4 -6 20 -20 37 l-25 30 25 16 c52 34 22 96 -46 96 l-39 0
0 -90z m85 35 c0 -27 -4 -30 -32 -33 -32 -3 -33 -2 -33 33 0 35 1 36 33 33 28
-3 32 -6 32 -33z"/>
<path d="M3825 485 c-18 -17 -25 -35 -25 -64 0 -87 113 -122 167 -52 24 31 15
41 -34 39 -44 -1 -45 -2 -10 -5 20 -2 37 -8 37 -13 0 -17 -44 -40 -76 -40 -40
0 -64 27 -64 72 0 67 74 96 125 48 33 -31 44 -18 12 14 -36 36 -98 36 -132 1z"/>
<path d="M4100 420 l0 -90 50 0 c28 0 50 5 50 10 0 6 -20 10 -45 10 -43 0 -45
1 -45 30 0 29 2 30 45 30 25 0 45 5 45 10 0 6 -20 10 -45 10 -43 0 -45 1 -45
30 0 29 2 30 45 30 25 0 45 5 45 10 0 6 -22 10 -50 10 l-50 0 0 -90z"/>
</g>
</svg>
