<?xml version="1.0" standalone="no"?>
<!DOCTYPE svg PUBLIC "-//W3C//DTD SVG 20010904//EN"
 "http://www.w3.org/TR/2001/REC-SVG-20010904/DTD/svg10.dtd">
<svg version="1.0" xmlns="http://www.w3.org/2000/svg"
 width="500.000000pt" height="500.000000pt" viewBox="0 0 500.000000 500.000000"
 preserveAspectRatio="xMidYMid meet">

<g transform="translate(0.000000,500.000000) scale(0.100000,-0.100000)"
fill="#000000" stroke="none">
<path d="M0 2500 l0 -2500 2500 0 2500 0 0 2500 0 2500 -2500 0 -2500 0 0
-2500z m2842 2260 c238 -38 424 -98 632 -201 647 -323 1080 -924 1192 -1654
23 -150 23 -460 0 -610 -22 -140 -65 -315 -111 -441 -76 -212 -233 -494 -275
-494 -24 0 -24 -2 30 80 144 215 259 514 311 806 31 169 33 530 6 689 -165
940 -861 1636 -1793 1792 -149 25 -524 25 -669 0 -707 -122 -1295 -556 -1595
-1178 -98 -205 -157 -388 -197 -614 -27 -159 -25 -520 6 -689 52 -291 166
-589 310 -805 56 -85 54 -81 31 -81 -42 0 -199 282 -275 494 -90 250 -128 472
-128 746 0 361 67 648 223 965 179 364 429 648 766 868 300 197 634 312 1004
347 129 13 393 3 532 -20z m-47 -568 c545 -123 963 -531 1090 -1067 156 -651
-153 -1308 -758 -1612 -49 -24 -91 -43 -92 -41 -2 2 -9 112 -15 246 l-13 242
29 57 c27 54 35 61 102 94 91 45 146 97 174 169 20 49 23 72 22 205 -1 128 -5
164 -27 247 -67 254 -213 428 -358 428 -15 0 -51 -8 -80 -17 -180 -57 -334
-405 -316 -712 10 -172 58 -250 193 -317 57 -28 83 -47 102 -77 26 -39 27 -47
27 -166 0 -69 -4 -201 -9 -293 l-8 -166 -42 -10 c-151 -38 -443 -41 -602 -7
l-81 17 -6 82 c-4 44 -9 161 -13 258 -9 243 6 281 141 344 77 37 128 88 153
155 36 96 36 166 6 525 l-28 334 -27 0 -27 0 -7 -319 -7 -319 -37 -6 c-19 -3
-38 -2 -42 2 -3 4 -16 151 -28 327 -27 402 -25 385 -60 385 l-28 0 -6 -197
c-4 -108 -7 -272 -7 -365 l0 -168 -49 0 -48 0 -6 83 c-4 45 -7 148 -7 228 0
80 -3 207 -7 282 l-6 137 -28 0 c-34 0 -32 17 -59 -400 -12 -173 -22 -316 -23
-317 -1 -1 -21 1 -45 4 l-42 6 0 318 0 319 -29 0 c-35 0 -29 26 -71 -334 -33
-284 -37 -404 -16 -483 27 -100 74 -153 183 -205 68 -32 104 -73 123 -139 10
-31 -5 -467 -15 -477 -8 -9 -178 81 -267 140 -113 75 -303 262 -371 365 -106
161 -169 301 -212 472 -154 616 109 1243 658 1575 137 82 309 146 481 177 137
25 409 20 541 -9z m-1585 -3122 l0 -40 -80 0 -80 0 0 -40 0 -40 60 0 60 0 0
-40 0 -40 -60 0 -60 0 0 -80 0 -80 -50 0 -50 0 0 200 0 200 130 0 130 0 0 -40z
m336 21 c144 -65 146 -283 5 -358 -158 -83 -338 61 -292 234 32 118 169 177
287 124z m471 -13 c59 -39 86 -101 81 -182 -4 -72 -29 -118 -85 -156 -41 -28
-125 -38 -177 -20 -144 47 -182 235 -69 342 41 39 70 48 144 45 52 -2 75 -8
106 -29z m360 20 c139 -35 187 -224 83 -328 -45 -45 -98 -60 -214 -60 l-86 0
0 200 0 200 86 0 c47 0 106 -5 131 -12z m495 -110 l83 -123 3 123 3 122 44 0
45 0 0 -200 0 -200 -47 0 -48 0 -80 123 -80 122 -3 -122 -3 -123 -44 0 -45 0
0 200 0 200 45 0 45 0 82 -122z m496 85 l-3 -38 -72 -3 -73 -3 0 -39 0 -40 65
0 65 0 0 -35 0 -35 -65 0 -65 0 0 -45 0 -44 73 -3 72 -3 3 -37 3 -38 -125 0
-126 0 0 200 0 200 126 0 125 0 -3 -37z m282 22 c33 -17 60 -52 60 -77 0 -27
-83 -25 -110 2 -24 24 -53 26 -70 5 -23 -28 -2 -53 70 -80 77 -29 120 -70 120
-113 -1 -68 -63 -122 -142 -122 -82 0 -139 34 -153 93 -7 27 -6 27 39 27 39 0
51 -5 70 -27 21 -24 27 -26 52 -18 32 11 42 38 24 60 -6 8 -40 23 -74 35 -35
11 -73 31 -84 43 -48 51 -33 139 29 170 42 21 131 22 169 2z m418 -22 l-3 -38
-52 -3 -53 -3 0 -160 0 -159 -45 0 -45 0 0 160 0 160 -55 0 -55 0 0 40 0 40
156 0 155 0 -3 -37z m-3208 -572 c-42 -6 -45 -8 -48 -38 -3 -33 -3 -33 42 -33
25 0 46 -4 46 -10 0 -5 -20 -10 -44 -10 l-45 0 -4 -42 c-2 -24 -4 -1 -5 50
l-2 92 53 -2 52 -1 -45 -6z m282 -2 c11 -6 26 -26 34 -45 12 -29 12 -39 0 -68
-32 -77 -130 -77 -162 0 -12 29 -12 39 0 68 8 19 22 39 33 45 24 14 69 14 95
0z m290 0 c11 -6 26 -26 34 -45 12 -29 12 -39 0 -68 -32 -77 -130 -77 -162 0
-12 29 -12 39 0 68 8 19 22 39 33 45 24 14 69 14 95 0z m276 -25 c19 -22 23
-35 18 -63 -8 -48 -35 -72 -90 -78 l-46 -6 0 93 0 93 47 -6 c35 -4 53 -12 71
-33z m376 14 c8 -13 6 -22 -9 -38 -18 -20 -18 -21 3 -43 20 -19 24 -20 33 -7
8 12 10 10 5 -9 -3 -13 -1 -33 5 -43 11 -20 -1 -24 -18 -7 -8 8 -17 8 -33 -1
-56 -30 -104 28 -60 75 17 18 20 27 12 41 -24 43 36 74 62 32z m408 11 c16 -9
19 -17 14 -44 -4 -19 -2 -36 4 -40 5 -3 10 -19 10 -35 0 -35 -23 -50 -74 -50
l-36 0 0 90 0 90 31 0 c17 0 39 -5 51 -11z m206 4 c-47 -4 -48 -5 -48 -39 0
-34 0 -34 46 -34 27 0 43 -4 39 -10 -3 -5 -24 -10 -46 -10 -37 0 -39 -2 -39
-30 0 -29 2 -30 45 -30 25 0 45 -4 45 -10 0 -5 -25 -10 -55 -10 l-55 0 0 90 0
90 58 -2 c56 -2 56 -2 10 -5z m193 -63 c28 -68 36 -79 45 -54 21 57 55 126 60
121 3 -3 -12 -45 -32 -93 l-38 -88 -32 70 c-37 82 -51 124 -36 109 5 -5 20
-35 33 -65z m287 63 c-47 -4 -48 -5 -48 -39 0 -33 1 -34 40 -34 22 0 40 -4 40
-10 0 -5 -18 -10 -40 -10 -38 0 -40 -2 -40 -30 0 -28 2 -30 39 -30 22 0 43 -4
46 -10 4 -6 -15 -10 -49 -10 l-56 0 0 90 0 90 58 -2 c56 -2 56 -2 10 -5z m254
-10 c26 -23 23 -59 -7 -79 l-25 -16 26 -34 c15 -19 22 -34 16 -34 -5 0 -22 16
-36 35 -35 46 -54 45 -59 -2 -2 -21 -4 4 -5 55 l-2 92 37 0 c20 0 45 -7 55
-17z m216 -38 c11 -27 28 -67 36 -87 9 -21 12 -38 6 -38 -5 0 -12 11 -16 25
-5 22 -12 25 -50 25 -39 0 -46 -3 -55 -26 -5 -15 -12 -24 -15 -21 -5 5 45 140
63 170 7 11 9 9 31 -48z m296 34 c14 -11 26 -25 26 -31 0 -5 -14 2 -31 16 -38
32 -60 33 -95 3 -54 -47 -26 -127 44 -127 33 0 72 22 72 41 0 4 -17 10 -37 12
-35 3 -34 4 10 5 55 2 59 -8 18 -49 -20 -20 -39 -29 -61 -29 -40 0 -90 47 -90
85 0 80 82 123 144 74z m216 12 c-42 -6 -45 -8 -48 -38 -3 -33 -3 -33 42 -33
25 0 46 -4 46 -10 0 -5 -20 -10 -45 -10 -43 0 -45 -1 -45 -30 0 -29 2 -30 45
-30 25 0 45 -4 45 -10 0 -5 -22 -10 -50 -10 l-50 0 0 90 0 90 53 -2 52 -1 -45
-6z"/>
<path d="M1385 997 c-31 -31 -35 -41 -35 -86 0 -41 5 -56 28 -81 36 -41 85
-48 130 -20 40 25 55 61 49 119 -6 56 -40 91 -95 98 -37 5 -45 2 -77 -30z"/>
<path d="M1852 1017 c-77 -44 -74 -175 5 -212 90 -43 177 47 144 148 -7 19
-20 42 -31 52 -24 22 -89 29 -118 12z"/>
<path d="M2260 910 l0 -120 30 0 c42 0 94 23 114 51 20 30 21 108 0 137 -21
30 -66 52 -109 52 l-35 0 0 -120z"/>
<path d="M1060 487 c-30 -15 -45 -54 -36 -91 13 -54 110 -65 136 -16 36 67
-33 142 -100 107z"/>
<path d="M1350 487 c-30 -15 -45 -54 -36 -91 13 -54 110 -65 136 -16 36 67
-33 142 -100 107z"/>
<path d="M1610 420 l0 -70 30 0 c41 0 70 31 70 74 0 40 -28 66 -72 66 -28 0
-28 0 -28 -70z"/>
<path d="M2033 484 c-8 -21 13 -42 28 -27 13 13 5 43 -11 43 -6 0 -13 -7 -17
-16z"/>
<path d="M2020 405 c-18 -21 -8 -50 19 -53 36 -5 47 12 27 42 -19 30 -29 32
-46 11z"/>
<path d="M2427 494 c-10 -11 -9 -52 3 -59 14 -8 58 5 63 19 3 7 2 18 -2 24 -8
14 -54 25 -64 16z"/>
<path d="M2427 414 c-4 -4 -7 -20 -7 -36 0 -25 3 -28 34 -28 40 0 65 24 49 48
-10 18 -63 28 -76 16z"/>
<path d="M3357 493 c-4 -3 -7 -21 -7 -40 0 -31 2 -33 35 -33 46 0 65 30 35 60
-20 20 -50 26 -63 13z"/>
<path d="M3606 446 c-22 -52 -21 -56 14 -56 34 0 37 11 16 61 l-14 33 -16 -38z"/>
</g>
</svg>
